# xmcd
# Track frame offsets:
# 150
# 5354
# 31459
# 52181
# 70950
# 87272
# 95627
# 115356
# 117672
# 130664
# 145378
# 150916
# 170401
# 186410
# 203048
# 232179
# 255024
# 278249
#
# Disc length: 3768 seconds
# Revision: 0
# Processed by: cddbd v1.5.2PL0 Copyright (c) Steve Scherf et al.
# Submitted via: VisiTrax 2.11.0.264 - For more info visit www.synapsa.com
#
DISCID=020eb612
DTITLE=Fabrizio Poggi and Chicken Mambo - Mercy
DYEAR=2008
DGENRE=
TTITLE0=Mercy
TTITLE1=Walkin' Blues
TTITLE2=Needed Time
TTITLE3=You Gotta Move
TTITLE4=Nobody's Fault But Mine
TTITLE5=Wayfaring Stranger
TTITLE6=Down By The Riverside
TTITLE7=People Get Ready
TTITLE8=This Train
TTITLE9=Will The Circle Be Unbroken
TTITLE10=Amazing Grace
TTITLE11=Jesus On The Mainline
TTITLE12=I Want Jesus To Walk With Me
TTITLE13=Precious Lord
TTITLE14=John The Revelator
TTITLE15=Cross The Road Blues
TTITLE16=The Soul Of A Man
TTITLE17=Amazing Grace
EXTD=
EXTT0=
EXTT1=
EXTT2=
EXTT3=
EXTT4=
EXTT5=
EXTT6=
EXTT7=
EXTT8=
EXTT9=
EXTT10=
EXTT11=
EXTT12=
EXTT13=
EXTT14=
EXTT15=
EXTT16=
EXTT17=
PLAYORDER=
